{
	"asset":{
		"generator":"Khronos glTF Blender I/O v4.4.56",
		"version":"2.0"
	},
	"extensionsUsed":[
		"KHR_lights_punctual"
	],
	"extensionsRequired":[
		"KHR_lights_punctual"
	],
	"extensions":{
		"KHR_lights_punctual":{
			"lights":[
				{
					"color":[
						1,
						1,
						1
					],
					"intensity":54351.41306588226,
					"type":"point",
					"name":"Light"
				}
			]
		}
	},
	"scene":0,
	"scenes":[
		{
			"extras":{
				"assets used":{
					"57035c03-2fd9-4d24-8db6-d549c8ffba43":{
						"addonVersion":"3.12.3",
						"assetBaseId":"57035c03-2fd9-4d24-8db6-d549c8ffba43",
						"assetType":"material",
						"author":{
							"aboutMe":"I am a Blender animator, modeller as well as a digital imaging specialist (Photoshop, since 1998).",
							"aboutMeUrl":"https://www.turningturnip.co.uk",
							"avatar128":"/avatar-redirect/f27f13f1-fabb-4c68-a841-9fda3c707246/128/",
							"firstName":"James",
							"fullName":"James Middleton",
							"gravatarHash":"08d08063b99022fda90e8477a0b502f5",
							"id":"33950",
							"lastName":"Middleton"
						},
						"available_resolutions":[
							512,
							1024,
							2048
						],
						"canDownload":true,
						"canDownloadError":true,
						"category":"wood",
						"created":"2024-09-24T18:56:23.215262+02:00",
						"description":"A 2K PBR Texture of tree bark. This bark wood texture has displacement.",
						"dictParameters":{
							"animated":false,
							"engine":"cycles",
							"imageAltTextGen4v":"High-resolution PBR tree bark texture for 3D modeling in Blender, includes detailed displacement for realism.",
							"joinBlenderkitDiscounts":true,
							"materialStyle":"realistic",
							"megapixels":0,
							"nodeCount":0,
							"pbrType":"metallic",
							"procedural":true,
							"purePbr":true,
							"sexualizedContent":false,
							"shaders":[
								"[]"
							],
							"textureCount":0,
							"textureSizeMeters":0.5,
							"uv":false
						},
						"displayName":"Tree Bark",
						"downloaded":0,
						"files":[
							{
								"created":"2024-09-24T19:08:08.496870+02:00",
								"downloadUrl":"https://www.blenderkit.com/api/v1/downloads/465679/",
								"fileThumbnail":"",
								"fileThumbnailLarge":"",
								"fileType":"blend",
								"filename":"assets/762bcf8dedd64b01925054ad669c08b6/files/blend_e5db83e4-ab56-4596-959d-a7415fc0569b.blend",
								"modified":"2024-09-24T19:08:08.496884+02:00",
								"resolution":0,
								"url":""
							},
							{
								"created":"2024-09-28T21:00:10.436495+02:00",
								"downloadUrl":"https://www.blenderkit.com/api/v1/downloads/467329/",
								"fileThumbnail":"",
								"fileThumbnailLarge":"",
								"fileType":"resolution_0_5K",
								"filename":"assets/762bcf8dedd64b01925054ad669c08b6/files/resolution_0_5K_d6e82b76-68ad-4e2a-ba0d-ffb99c267f1a.blend",
								"modified":"2024-09-28T21:00:10.436510+02:00",
								"resolution":0,
								"url":""
							},
							{
								"created":"2024-09-28T21:00:09.847829+02:00",
								"downloadUrl":"https://www.blenderkit.com/api/v1/downloads/467328/",
								"fileThumbnail":"",
								"fileThumbnailLarge":"",
								"fileType":"resolution_1K",
								"filename":"assets/762bcf8dedd64b01925054ad669c08b6/files/resolution_1K_4a5b24a4-511a-4f87-b053-aa608e54ee66.blend",
								"modified":"2024-09-28T21:00:09.847842+02:00",
								"resolution":0,
								"url":""
							},
							{
								"created":"2024-09-28T21:00:09.339967+02:00",
								"downloadUrl":"https://www.blenderkit.com/api/v1/downloads/467327/",
								"fileThumbnail":"",
								"fileThumbnailLarge":"",
								"fileType":"resolution_2K",
								"filename":"assets/762bcf8dedd64b01925054ad669c08b6/files/resolution_2K_0f8c7dc7-b7ba-498f-af47-d6edffcebdf9.blend",
								"modified":"2024-09-28T21:00:09.339982+02:00",
								"resolution":0,
								"url":"https://assets.blenderkit.com/assets/762bcf8dedd64b01925054ad669c08b6/files/resolution_2K_0f8c7dc7-b7ba-498f-af47-d6edffcebdf9.blend?verify=1749162698-5PxfqSA5gaR%2B96jYv7KOG7ykIHRpzC0k58Lc%2B%2F5djjA%3D",
								"file_name":"C:\\Users\\sgtJV\\blenderkit_data\\materials\\tree-bark_762bcf8d-edd6-4b01-9250-54ad669c08b6\\tree-bark_2K_0f8c7dc7-b7ba-498f-af47-d6edffcebdf9.blend"
							},
							{
								"created":"2024-09-24T18:56:43.270085+02:00",
								"downloadUrl":"https://www.blenderkit.com/api/v1/downloads/465642/",
								"fileThumbnail":"https://public.blenderkit.com/thumbnails/assets/762bcf8dedd64b01925054ad669c08b6/files/thumbnail_4fd745b9-d2b0-438d-97e9-e91a46da6e03.png.96x96_q85_crop-%2C.png",
								"fileThumbnailLarge":"https://public.blenderkit.com/thumbnails/assets/762bcf8dedd64b01925054ad669c08b6/files/thumbnail_4fd745b9-d2b0-438d-97e9-e91a46da6e03.png.1024x1024_q85_crop-%2C.png",
								"fileType":"thumbnail",
								"filename":"assets/762bcf8dedd64b01925054ad669c08b6/files/thumbnail_4fd745b9-d2b0-438d-97e9-e91a46da6e03.png",
								"modified":"2024-09-24T18:56:43.270098+02:00",
								"resolution":0,
								"url":""
							}
						],
						"filesSize":43931,
						"id":"762bcf8d-edd6-4b01-9250-54ad669c08b6",
						"isFree":true,
						"isPrivate":false,
						"lastBlendUpload":"2024-09-24T17:08:08.496870+00:00",
						"lastGltfUpload":"",
						"lastResolutionUpload":"2024-09-28T19:00:10.436495+00:00",
						"lastThumbnailUpload":"2024-09-24T16:56:43.270085+00:00",
						"lastUserInteraction":"2024-09-24T19:08:09.010898+02:00",
						"lastVideoUpload":"",
						"lastZipFileUpload":"",
						"license":"royalty_free",
						"max_resolution":2048,
						"name":"Tree Bark",
						"pk":110053,
						"ratingsAverage":{
							"bookmarks":1,
							"quality":10,
							"virtualPrice":null,
							"workingHours":2
						},
						"ratingsCount":{
							"bookmarks":12,
							"quality":1,
							"virtualPrice":0,
							"workingHours":1
						},
						"ratingsMedian":{
							"bookmarks":1,
							"quality":10,
							"virtualPrice":null,
							"workingHours":2
						},
						"ratingsSum":{
							"bookmarks":12,
							"quality":10,
							"score":200,
							"virtualPrice":null,
							"workingHours":2
						},
						"score":200,
						"showMarketingLabels":true,
						"sourceAppName":"blender",
						"sourceAppVersion":"4.2.1",
						"tags":[
							"bark",
							"tree",
							"wood",
							"pbr",
							"texture",
							"treebark"
						],
						"texture_size_meters":0.5,
						"thumbnail":"thumbnail_4fd745b9-d2b0-438d-97e9-e91a46da6e03.png.512x512_q85_crop-%2C.png.webp",
						"thumbnailLargeUrl":"https://public.blenderkit.com/thumbnails/assets/762bcf8dedd64b01925054ad669c08b6/files/thumbnail_4fd745b9-d2b0-438d-97e9-e91a46da6e03.png.1024x1024_q85_crop-%2C.png",
						"thumbnailLargeUrlNonsquared":"https://public.blenderkit.com/thumbnails/assets/762bcf8dedd64b01925054ad669c08b6/files/thumbnail_4fd745b9-d2b0-438d-97e9-e91a46da6e03.png.1024x1024_q85.png",
						"thumbnailLargeUrlNonsquaredWebp":"https://public.blenderkit.com/thumbnails/assets/762bcf8dedd64b01925054ad669c08b6/files/thumbnail_4fd745b9-d2b0-438d-97e9-e91a46da6e03.png.1024x1024_q85.png.webp?webp_generated=1727550105",
						"thumbnailLargeUrlWebp":"https://public.blenderkit.com/thumbnails/assets/762bcf8dedd64b01925054ad669c08b6/files/thumbnail_4fd745b9-d2b0-438d-97e9-e91a46da6e03.png.1024x1024_q85_crop-%2C.png.webp?webp_generated=1727550105",
						"thumbnailMiddleUrl":"https://public.blenderkit.com/thumbnails/assets/762bcf8dedd64b01925054ad669c08b6/files/thumbnail_4fd745b9-d2b0-438d-97e9-e91a46da6e03.png.512x512_q85_crop-%2C.png",
						"thumbnailMiddleUrlNonsquared":"https://public.blenderkit.com/thumbnails/assets/762bcf8dedd64b01925054ad669c08b6/files/thumbnail_4fd745b9-d2b0-438d-97e9-e91a46da6e03.png.512x512_q85.png",
						"thumbnailMiddleUrlNonsquaredWebp":"https://public.blenderkit.com/thumbnails/assets/762bcf8dedd64b01925054ad669c08b6/files/thumbnail_4fd745b9-d2b0-438d-97e9-e91a46da6e03.png.512x512_q85.png.webp?webp_generated=1727550105",
						"thumbnailMiddleUrlWebp":"https://public.blenderkit.com/thumbnails/assets/762bcf8dedd64b01925054ad669c08b6/files/thumbnail_4fd745b9-d2b0-438d-97e9-e91a46da6e03.png.512x512_q85_crop-%2C.png.webp?webp_generated=1727550105",
						"thumbnailSmallUrl":"https://public.blenderkit.com/thumbnails/assets/762bcf8dedd64b01925054ad669c08b6/files/thumbnail_4fd745b9-d2b0-438d-97e9-e91a46da6e03.png.256x256_q85_crop-%2C.png",
						"thumbnailSmallUrlNonsquared":"https://public.blenderkit.com/thumbnails/assets/762bcf8dedd64b01925054ad669c08b6/files/thumbnail_4fd745b9-d2b0-438d-97e9-e91a46da6e03.png.256x256_q85.png",
						"thumbnailSmallUrlNonsquaredWebp":"https://public.blenderkit.com/thumbnails/assets/762bcf8dedd64b01925054ad669c08b6/files/thumbnail_4fd745b9-d2b0-438d-97e9-e91a46da6e03.png.256x256_q85.png.webp?webp_generated=1727550105",
						"thumbnailSmallUrlWebp":"https://public.blenderkit.com/thumbnails/assets/762bcf8dedd64b01925054ad669c08b6/files/thumbnail_4fd745b9-d2b0-438d-97e9-e91a46da6e03.png.256x256_q85_crop-%2C.png.webp?webp_generated=1727550105",
						"thumbnailXlargeUrl":"https://public.blenderkit.com/thumbnails/assets/762bcf8dedd64b01925054ad669c08b6/files/thumbnail_4fd745b9-d2b0-438d-97e9-e91a46da6e03.png.2048x2048_q85_crop-%2C.png",
						"thumbnailXlargeUrlNonsquared":"https://public.blenderkit.com/thumbnails/assets/762bcf8dedd64b01925054ad669c08b6/files/thumbnail_4fd745b9-d2b0-438d-97e9-e91a46da6e03.png.2048x2048_q85.png",
						"thumbnailXlargeUrlNonsquaredWebp":"https://public.blenderkit.com/thumbnails/assets/762bcf8dedd64b01925054ad669c08b6/files/thumbnail_4fd745b9-d2b0-438d-97e9-e91a46da6e03.png.2048x2048_q85.png.webp?webp_generated=1727550105",
						"thumbnailXlargeUrlWebp":"https://public.blenderkit.com/thumbnails/assets/762bcf8dedd64b01925054ad669c08b6/files/thumbnail_4fd745b9-d2b0-438d-97e9-e91a46da6e03.png.2048x2048_q85_crop-%2C.png.webp?webp_generated=1727550105",
						"thumbnail_small":"thumbnail_4fd745b9-d2b0-438d-97e9-e91a46da6e03.png.256x256_q85_crop-%2C.png.webp",
						"tooltip_data":{
							"aname":"Tree Bark",
							"author_text":"by James Middleton",
							"quality":"10"
						},
						"url":"https://www.blenderkit.com/api/v1/assets/762bcf8d-edd6-4b01-9250-54ad669c08b6/",
						"verificationStatus":"validated",
						"versionNumber":1,
						"webpGeneratedTimestamp":1727550105,
						"resolution":"resolution_2K"
					},
					"a5917e97-b0a2-4063-9339-9a1197de71a4":{
						"addonVersion":"3.7.0",
						"assetBaseId":"a5917e97-b0a2-4063-9339-9a1197de71a4",
						"assetType":"material",
						"author":{
							"aboutMe":"",
							"aboutMeUrl":"https://dribbble.com/voroninura10",
							"avatar128":"/avatar-redirect/8bd95885-940f-4111-96f5-5c59fd3ac9a0/128/",
							"firstName":"\u042e\u0440\u0438\u0439",
							"fullName":"\u042e\u0440\u0438\u0439 \u0412\u043e\u0440\u043e\u043d\u0438\u043d",
							"gravatarHash":"27be9a18b89488aeda624f07b7b37383",
							"id":"611283",
							"lastName":"\u0412\u043e\u0440\u043e\u043d\u0438\u043d"
						},
						"available_resolutions":[],
						"canDownload":true,
						"canDownloadError":true,
						"category":"wood",
						"created":"2023-07-12T19:49:15.292542+02:00",
						"description":"Burned wood material",
						"dictParameters":{
							"animated":false,
							"engine":"cycles",
							"imageAltTextGen4v":"Realistic charred wood PBR texture for 3D rendering in Blender and other software.",
							"joinBlenderkitDiscounts":true,
							"materialStyle":"realistic",
							"megapixels":0,
							"nodeCount":17,
							"procedural":true,
							"purePbr":false,
							"sexualizedContent":false,
							"shaders":[
								"principled"
							],
							"textureCount":0,
							"textureSizeMeters":1,
							"uv":false
						},
						"displayName":"Wood",
						"downloaded":0,
						"files":[
							{
								"created":"2023-07-12T19:49:21.880679+02:00",
								"downloadUrl":"https://www.blenderkit.com/api/v1/downloads/212910/",
								"fileThumbnail":"",
								"fileThumbnailLarge":"",
								"fileType":"blend",
								"filename":"assets/edd44a877ab546ec94ec8ed38ae642d1/files/blend_2b5059fa-94bd-4e5f-877a-25caac2fe295.blend",
								"modified":"2023-07-12T19:49:22.778816+02:00",
								"resolution":0,
								"url":"https://assets.blenderkit.com/assets/edd44a877ab546ec94ec8ed38ae642d1/files/blend_2b5059fa-94bd-4e5f-877a-25caac2fe295.blend?verify=1749162726-WnTm0GgK2Vl8B8nvfWASJoQiNVTjwTxGXk0o2mOLmOQ%3D",
								"file_name":"C:\\Users\\sgtJV\\blenderkit_data\\materials\\wood_edd44a87-7ab5-46ec-94ec-8ed38ae642d1\\wood_2b5059fa-94bd-4e5f-877a-25caac2fe295.blend"
							},
							{
								"created":"2023-07-12T19:49:19.359023+02:00",
								"downloadUrl":"https://www.blenderkit.com/api/v1/downloads/212909/",
								"fileThumbnail":"https://public.blenderkit.com/thumbnails/assets/edd44a877ab546ec94ec8ed38ae642d1/files/thumbnail_6b84efb2-b2a2-473f-9f37-2f8e2d03b895.png.96x96_q85_crop-%2C.png",
								"fileThumbnailLarge":"https://public.blenderkit.com/thumbnails/assets/edd44a877ab546ec94ec8ed38ae642d1/files/thumbnail_6b84efb2-b2a2-473f-9f37-2f8e2d03b895.png.1024x1024_q85_crop-%2C.png",
								"fileType":"thumbnail",
								"filename":"assets/edd44a877ab546ec94ec8ed38ae642d1/files/thumbnail_6b84efb2-b2a2-473f-9f37-2f8e2d03b895.png",
								"modified":"2023-07-12T19:49:23.022439+02:00",
								"resolution":0,
								"url":""
							}
						],
						"filesSize":1083,
						"id":"edd44a87-7ab5-46ec-94ec-8ed38ae642d1",
						"isFree":true,
						"isPrivate":false,
						"lastBlendUpload":"2023-07-12T17:49:21.880679+00:00",
						"lastGltfUpload":"",
						"lastResolutionUpload":"",
						"lastThumbnailUpload":"2023-07-12T17:49:19.359023+00:00",
						"lastUserInteraction":"2023-07-12T19:49:22.356899+02:00",
						"lastVideoUpload":"",
						"lastZipFileUpload":"",
						"license":"royalty_free",
						"max_resolution":0,
						"name":"Wood",
						"pk":59315,
						"ratingsAverage":{
							"bookmarks":0.9877300613496932,
							"quality":9,
							"virtualPrice":null,
							"workingHours":1
						},
						"ratingsCount":{
							"bookmarks":163,
							"quality":2,
							"virtualPrice":0,
							"workingHours":1
						},
						"ratingsMedian":{
							"bookmarks":1,
							"quality":9,
							"virtualPrice":null,
							"workingHours":1
						},
						"ratingsSum":{
							"bookmarks":161,
							"quality":18,
							"score":90,
							"virtualPrice":null,
							"workingHours":1
						},
						"score":90,
						"showMarketingLabels":true,
						"sourceAppName":"blender",
						"sourceAppVersion":"3.4.1",
						"tags":[
							"material",
							"wood",
							"procedural"
						],
						"texture_size_meters":1,
						"thumbnail":"thumbnail_6b84efb2-b2a2-473f-9f37-2f8e2d03b895.png.512x512_q85_crop-%2C.png.webp",
						"thumbnailLargeUrl":"https://public.blenderkit.com/thumbnails/assets/edd44a877ab546ec94ec8ed38ae642d1/files/thumbnail_6b84efb2-b2a2-473f-9f37-2f8e2d03b895.png.1024x1024_q85_crop-%2C.png",
						"thumbnailLargeUrlNonsquared":"https://public.blenderkit.com/thumbnails/assets/edd44a877ab546ec94ec8ed38ae642d1/files/thumbnail_6b84efb2-b2a2-473f-9f37-2f8e2d03b895.png.1024x1024_q85.png",
						"thumbnailLargeUrlNonsquaredWebp":"https://public.blenderkit.com/thumbnails/assets/edd44a877ab546ec94ec8ed38ae642d1/files/thumbnail_6b84efb2-b2a2-473f-9f37-2f8e2d03b895.png.1024x1024_q85.png.webp?webp_generated=1700170801",
						"thumbnailLargeUrlWebp":"https://public.blenderkit.com/thumbnails/assets/edd44a877ab546ec94ec8ed38ae642d1/files/thumbnail_6b84efb2-b2a2-473f-9f37-2f8e2d03b895.png.1024x1024_q85_crop-%2C.png.webp?webp_generated=1700170801",
						"thumbnailMiddleUrl":"https://public.blenderkit.com/thumbnails/assets/edd44a877ab546ec94ec8ed38ae642d1/files/thumbnail_6b84efb2-b2a2-473f-9f37-2f8e2d03b895.png.512x512_q85_crop-%2C.png",
						"thumbnailMiddleUrlNonsquared":"https://public.blenderkit.com/thumbnails/assets/edd44a877ab546ec94ec8ed38ae642d1/files/thumbnail_6b84efb2-b2a2-473f-9f37-2f8e2d03b895.png.512x512_q85.png",
						"thumbnailMiddleUrlNonsquaredWebp":"https://public.blenderkit.com/thumbnails/assets/edd44a877ab546ec94ec8ed38ae642d1/files/thumbnail_6b84efb2-b2a2-473f-9f37-2f8e2d03b895.png.512x512_q85.png.webp?webp_generated=1700170801",
						"thumbnailMiddleUrlWebp":"https://public.blenderkit.com/thumbnails/assets/edd44a877ab546ec94ec8ed38ae642d1/files/thumbnail_6b84efb2-b2a2-473f-9f37-2f8e2d03b895.png.512x512_q85_crop-%2C.png.webp?webp_generated=1700170801",
						"thumbnailSmallUrl":"https://public.blenderkit.com/thumbnails/assets/edd44a877ab546ec94ec8ed38ae642d1/files/thumbnail_6b84efb2-b2a2-473f-9f37-2f8e2d03b895.png.256x256_q85_crop-%2C.png",
						"thumbnailSmallUrlNonsquared":"https://public.blenderkit.com/thumbnails/assets/edd44a877ab546ec94ec8ed38ae642d1/files/thumbnail_6b84efb2-b2a2-473f-9f37-2f8e2d03b895.png.256x256_q85.png",
						"thumbnailSmallUrlNonsquaredWebp":"https://public.blenderkit.com/thumbnails/assets/edd44a877ab546ec94ec8ed38ae642d1/files/thumbnail_6b84efb2-b2a2-473f-9f37-2f8e2d03b895.png.256x256_q85.png.webp?webp_generated=1700170801",
						"thumbnailSmallUrlWebp":"https://public.blenderkit.com/thumbnails/assets/edd44a877ab546ec94ec8ed38ae642d1/files/thumbnail_6b84efb2-b2a2-473f-9f37-2f8e2d03b895.png.256x256_q85_crop-%2C.png.webp?webp_generated=1700170801",
						"thumbnailXlargeUrl":"https://public.blenderkit.com/thumbnails/assets/edd44a877ab546ec94ec8ed38ae642d1/files/thumbnail_6b84efb2-b2a2-473f-9f37-2f8e2d03b895.png.2048x2048_q85_crop-%2C.png",
						"thumbnailXlargeUrlNonsquared":"https://public.blenderkit.com/thumbnails/assets/edd44a877ab546ec94ec8ed38ae642d1/files/thumbnail_6b84efb2-b2a2-473f-9f37-2f8e2d03b895.png.2048x2048_q85.png",
						"thumbnailXlargeUrlNonsquaredWebp":"https://public.blenderkit.com/thumbnails/assets/edd44a877ab546ec94ec8ed38ae642d1/files/thumbnail_6b84efb2-b2a2-473f-9f37-2f8e2d03b895.png.2048x2048_q85.png.webp?webp_generated=1700170801",
						"thumbnailXlargeUrlWebp":"https://public.blenderkit.com/thumbnails/assets/edd44a877ab546ec94ec8ed38ae642d1/files/thumbnail_6b84efb2-b2a2-473f-9f37-2f8e2d03b895.png.2048x2048_q85_crop-%2C.png.webp?webp_generated=1700170801",
						"thumbnail_small":"thumbnail_6b84efb2-b2a2-473f-9f37-2f8e2d03b895.png.256x256_q85_crop-%2C.png.webp",
						"tooltip_data":{
							"aname":"Wood",
							"author_text":"by \u042e\u0440\u0438\u0439 \u0412\u043e\u0440\u043e\u043d\u0438\u043d",
							"quality":"9"
						},
						"url":"https://www.blenderkit.com/api/v1/assets/edd44a87-7ab5-46ec-94ec-8ed38ae642d1/",
						"verificationStatus":"validated",
						"versionNumber":1,
						"webpGeneratedTimestamp":1700170801,
						"resolution":"resolution_2K"
					}
				},
				"uuid":"4f55fa65-efa1-4654-9f4d-1fefbda3ecf3",
				"assets reported":{}
			},
			"name":"Scene",
			"nodes":[
				0,
				1,
				2
			]
		}
	],
	"nodes":[
		{
			"extensions":{
				"KHR_lights_punctual":{
					"light":0
				}
			},
			"name":"Light",
			"rotation":[
				-0.28416627645492554,
				0.7269423007965088,
				0.34203392267227173,
				0.5232754945755005
			],
			"translation":[
				4.076245307922363,
				5.903861999511719,
				-1.0054539442062378
			]
		},
		{
			"camera":0,
			"name":"Camera",
			"rotation":[
				-0.20997299253940582,
				0.3857799470424652,
				0.09062844514846802,
				0.8937962055206299
			],
			"translation":[
				7.358891487121582,
				4.958309173583984,
				6.925790786743164
			]
		},
		{
			"extras":{
				"currentUVSet":"map1"
			},
			"mesh":0,
			"name":"acorn_mesh",
			"rotation":[
				0.7071068286895752,
				0,
				0,
				0.7071068286895752
			],
			"scale":[
				0.009999999776482582,
				0.009999999776482582,
				0.009999999776482582
			]
		}
	],
	"cameras":[
		{
			"name":"Camera",
			"perspective":{
				"aspectRatio":1.7777777777777777,
				"yfov":0.39959652046304894,
				"zfar":100,
				"znear":0.10000000149011612
			},
			"type":"perspective"
		}
	],
	"materials":[
		{
			"doubleSided":true,
			"name":"Acorn bottom",
			"pbrMetallicRoughness":{
				"baseColorFactor":[
					0.17440345883369446,
					0.02590194344520569,
					0,
					1
				],
				"metallicFactor":0,
				"roughnessFactor":0.5
			}
		},
		{
			"doubleSided":true,
			"name":"Acorn top",
			"pbrMetallicRoughness":{
				"baseColorFactor":[
					0.15190738439559937,
					0.05824895575642586,
					0.02903124876320362,
					1
				],
				"metallicFactor":0,
				"roughnessFactor":0.5
			}
		}
	],
	"meshes":[
		{
			"name":"Mesh",
			"primitives":[
				{
					"attributes":{
						"POSITION":0,
						"NORMAL":1,
						"TEXCOORD_0":2,
						"TEXCOORD_1":3,
						"TANGENT":4
					},
					"indices":5,
					"material":0
				},
				{
					"attributes":{
						"POSITION":6,
						"NORMAL":7,
						"TEXCOORD_0":8,
						"TEXCOORD_1":9,
						"TANGENT":10
					},
					"indices":11,
					"material":1
				}
			]
		}
	],
	"accessors":[
		{
			"bufferView":0,
			"componentType":5126,
			"count":3576,
			"max":[
				111.17193603515625,
				111.17198944091797,
				108.36796569824219
			],
			"min":[
				-111.17198181152344,
				-111.17195892333984,
				-247.4683837890625
			],
			"type":"VEC3"
		},
		{
			"bufferView":1,
			"componentType":5126,
			"count":3576,
			"type":"VEC3"
		},
		{
			"bufferView":2,
			"componentType":5126,
			"count":3576,
			"type":"VEC2"
		},
		{
			"bufferView":3,
			"componentType":5126,
			"count":3576,
			"type":"VEC2"
		},
		{
			"bufferView":4,
			"componentType":5126,
			"count":3576,
			"type":"VEC4"
		},
		{
			"bufferView":5,
			"componentType":5123,
			"count":15810,
			"type":"SCALAR"
		},
		{
			"bufferView":6,
			"componentType":5126,
			"count":843,
			"max":[
				116.09228515625,
				116.09235382080078,
				-50
			],
			"min":[
				-116.09234619140625,
				-116.09233093261719,
				-169.92343139648438
			],
			"type":"VEC3"
		},
		{
			"bufferView":7,
			"componentType":5126,
			"count":843,
			"type":"VEC3"
		},
		{
			"bufferView":8,
			"componentType":5126,
			"count":843,
			"type":"VEC2"
		},
		{
			"bufferView":9,
			"componentType":5126,
			"count":843,
			"type":"VEC2"
		},
		{
			"bufferView":10,
			"componentType":5126,
			"count":843,
			"type":"VEC4"
		},
		{
			"bufferView":11,
			"componentType":5123,
			"count":3870,
			"type":"SCALAR"
		}
	],
	"bufferViews":[
		{
			"buffer":0,
			"byteLength":42912,
			"byteOffset":0,
			"target":34962
		},
		{
			"buffer":0,
			"byteLength":42912,
			"byteOffset":42912,
			"target":34962
		},
		{
			"buffer":0,
			"byteLength":28608,
			"byteOffset":85824,
			"target":34962
		},
		{
			"buffer":0,
			"byteLength":28608,
			"byteOffset":114432,
			"target":34962
		},
		{
			"buffer":0,
			"byteLength":57216,
			"byteOffset":143040,
			"target":34962
		},
		{
			"buffer":0,
			"byteLength":31620,
			"byteOffset":200256,
			"target":34963
		},
		{
			"buffer":0,
			"byteLength":10116,
			"byteOffset":231876,
			"target":34962
		},
		{
			"buffer":0,
			"byteLength":10116,
			"byteOffset":241992,
			"target":34962
		},
		{
			"buffer":0,
			"byteLength":6744,
			"byteOffset":252108,
			"target":34962
		},
		{
			"buffer":0,
			"byteLength":6744,
			"byteOffset":258852,
			"target":34962
		},
		{
			"buffer":0,
			"byteLength":13488,
			"byteOffset":265596,
			"target":34962
		},
		{
			"buffer":0,
			"byteLength":7740,
			"byteOffset":279084,
			"target":34963
		}
	],
	"buffers":[
		{
			"byteLength":286824,
			"uri":"Acorn-fa8fe2ce984323bd03668ec9a117a5aa.bin"
		}
	]
}
